# xmcd
#
# Track frame offsets:
#	150
#	25905
#	54725
#	72729
#	97233
#	125044
#	148889
#	181992
#	203855
#	227768
#	263167
#
# Disc length: 3875 seconds
#
# Revision: 2
# Processed by: cddbd v1.5.2PL0 Copyright (c) Steve Scherf et al.
# Submitted via: EasyCDDAExtractor 11.6.0.1
#
DISCID=b10f210b
DTITLE=陈升 - [2005] 鱼说
DYEAR=2005
DGENRE=
TTITLE0=你一直在玩
TTITLE1=鱼丸
TTITLE2=鱼说
TTITLE3=塔里的男孩
TTITLE4=诽闻
TTITLE5=梦河
TTITLE6=瘟疫
TTITLE7=伦敦废人区
TTITLE8=1989
TTITLE9=漠然
TTITLE10=孩子气
EXTD=YEAR: 2005
EXTT0=
EXTT1=
EXTT2=
EXTT3=
EXTT4=
EXTT5=
EXTT6=
EXTT7=
EXTT8=
EXTT9=
EXTT10=
PLAYORDER=
